<?xml version="1.0" encoding="UTF-8" standalone="no"?>
<svg
   xmlns:dc="http://purl.org/dc/elements/1.1/"
   xmlns:cc="http://creativecommons.org/ns#"
   xmlns:rdf="http://www.w3.org/1999/02/22-rdf-syntax-ns#"
   xmlns:svg="http://www.w3.org/2000/svg"
   xmlns="http://www.w3.org/2000/svg"
   xmlns:xlink="http://www.w3.org/1999/xlink"
   xmlns:sodipodi="http://sodipodi.sourceforge.net/DTD/sodipodi-0.dtd"
   xmlns:inkscape="http://www.inkscape.org/namespaces/inkscape"
   width="288"
   height="288"
   id="svg2"
   version="1.1"
   inkscape:version="0.48.1 r9760"
   sodipodi:docname="Public-key-crypto-1.svg">
  <metadata
     id="metadata102">
    <rdf:RDF>
      <cc:Work
         rdf:about="">
        <dc:format>image/svg+xml</dc:format>
        <dc:type
           rdf:resource="http://purl.org/dc/dcmitype/StillImage" />
        <dc:title></dc:title>
      </cc:Work>
    </rdf:RDF>
  </metadata>
  <sodipodi:namedview
     pagecolor="#ffffff"
     bordercolor="#666666"
     borderopacity="1"
     objecttolerance="10"
     gridtolerance="10"
     guidetolerance="10"
     inkscape:pageopacity="0"
     inkscape:pageshadow="2"
     inkscape:window-width="924"
     inkscape:window-height="689"
     id="namedview100"
     showgrid="false"
     inkscape:zoom="2.0277778"
     inkscape:cx="141.997"
     inkscape:cy="152.79301"
     inkscape:window-x="0"
     inkscape:window-y="0"
     inkscape:window-maximized="0"
     inkscape:current-layer="svg2" />
  <defs
     id="defs4">
    <pattern
       id="checkerPattern"
       patternUnits="userSpaceOnUse"
       x="0"
       y="0"
       width="64"
       height="64"
       viewBox="0 0 32 32">
      <rect
         x="0"
         y="0"
         width="16"
         height="16"
         fill="lightblue"
         id="rect7" />
      <rect
         x="16"
         y="16"
         width="16"
         height="16"
         fill="lightblue"
         id="rect9" />
    </pattern>
    <radialGradient
       id="greenGrad"
       cx="48"
       cy="16"
       r="56"
       fx="24"
       fy="4"
       spreadMethod="pad"
       gradientUnits="userSpaceOnUse">
      <stop
         offset="5%"
         stop-color="lightgreen"
         id="stop12" />
      <stop
         offset="95%"
         stop-color="green"
         id="stop14" />
    </radialGradient>
    <radialGradient
       id="redGrad"
       cx="48"
       cy="16"
       r="56"
       fx="24"
       fy="4"
       spreadMethod="pad"
       gradientUnits="userSpaceOnUse">
      <stop
         offset="5%"
         stop-color="red"
         id="stop17" />
      <stop
         offset="95%"
         stop-color="brown"
         id="stop19" />
    </radialGradient>
    <mask
       id="keyMask">
      <!-- 104x48 -->
      <circle
         cx="24"
         cy="24"
         r="24"
         fill="white"
         stroke="white"
         stroke-width="2"
         id="circle22" />
      <circle
         cx="18"
         cy="24"
         r="8"
         fill="black"
         stroke="white"
         stroke-width="3"
         id="circle24" />
      <path
         d="M46 16 l50 0 l8 8 l-8 8    l-2 0 l-4 -4 l-2 2 l-2 -2 l-4 4 l-6 -6 l-2 2 l-2 -2 l-4 4 l-2 -2 l-2 2 l-4 -4 l-4 4 l-2 -2 l-4 4    l-4 0"
         fill="white"
         stroke="white"
         stroke-width="2"
         id="path26" />
    </mask>
    <g
       id="key"
       mask="url(#keyMask)">
      <!-- 104x48 -->
      <circle
         cx="24"
         cy="24"
         r="24"
         stroke-width="2"
         id="circle29" />
      <circle
         cx="18"
         cy="24"
         r="8"
         fill="white"
         stroke-width="2"
         id="circle31" />
      <path
         d="M46 16 l50 0 l8 8 l-8 8    l-2 0 l-4 -4 l-2 2 l-2 -2 l-4 4 l-6 -6 l-2 2 l-2 -2 l-4 4 l-2 -2 l-2 2 l-4 -4 l-4 4 l-2 -2 l-4 4    l-4 0"
         stroke-width="2"
         id="path33" />
    </g>
    <g
       id="redKey"
       fill="url(#redGrad)"
       stroke="brown">
      <use
         xlink:href="#key"
         id="use36" />
    </g>
    <g
       id="greenKey"
       fill="url(#greenGrad)"
       stroke="green">
      <use
         xlink:href="#key"
         id="use39" />
    </g>
    <g
       id="alicePrivate">
      <use
         xlink:href="#redKey"
         id="use42" />
      <text
         x="28"
         y="32"
         font-size="20"
         font-weight="bold"
         font-family="DejaVu Sans"
         fill="white"
         stroke="brown"
         id="text44">A</text>
      <text
         x="48"
         y="26"
         font-size="12"
         font-weight="bold"
         font-family="DejaVu Sans"
         fill="white"
         id="text46">Private</text>
    </g>
    <g
       id="alicePublic">
      <use
         xlink:href="#greenKey"
         id="use49" />
      <text
         x="28"
         y="32"
         font-size="20"
         font-weight="bold"
         font-family="DejaVu Sans"
         fill="white"
         stroke="green"
         id="text51">A</text>
      <text
         x="48"
         y="26"
         font-size="12"
         font-weight="bold"
         font-family="DejaVu Sans"
         fill="white"
         id="text53">Public</text>
    </g>
    <g
       id="randomNumberBox">
      <rect
         width="100"
         height="48"
         fill="blue"
         fill-opacity="0.3"
         stroke="blue"
         stroke-width="2"
         id="rect56" />
      <text
         x="0"
         y="14"
         font-size="16"
         font-family="DejaVu Sans Mono"
         fill="blue"
         fill-opacity="0.3"
         id="text58">0110101010</text>
      <text
         x="0"
         y="30"
         font-size="16"
         font-family="DejaVu Sans Mono"
         fill="blue"
         fill-opacity="0.3"
         id="text60">1101110100</text>
      <text
         x="0"
         y="46"
         font-size="16"
         font-family="DejaVu Sans Mono"
         fill="blue"
         fill-opacity="0.3"
         id="text62">0011011010</text>
      <text
         x="25"
         y="13"
         font-size="16"
         font-weight="bold"
         font-family="DejaVu Sans"
         id="text64">Large</text>
      <text
         x="15"
         y="29"
         font-size="16"
         font-weight="bold"
         font-family="DejaVu Sans"
         id="text66">Random</text>
      <text
         x="15"
         y="45"
         font-size="16"
         font-weight="bold"
         font-family="DejaVu Sans"
         id="text68">Number</text>
    </g>
    <g
       id="keyGeneratorBox">
      <rect
         width="100"
         height="48"
         fill="orange"
         fill-opacity="0.3"
         stroke="orange"
         stroke-width="2"
         id="rect71" />
      <text
         x="33"
         y="13"
         font-size="16"
         font-weight="bold"
         font-family="DejaVu Sans"
         id="text73">Key</text>
      <text
         x="1"
         y="29"
         font-size="16"
         font-weight="bold"
         font-family="DejaVu Sans"
         id="text75">Generation</text>
      <text
         x="12"
         y="45"
         font-size="16"
         font-weight="bold"
         font-family="DejaVu Sans"
         id="text77">Program</text>
    </g>
    <marker
       id="triangle"
       markerUnits="userSpaceOnUse"
       viewBox="0 0 10 10"
       refX="10"
       refY="5"
       orient="auto"
       markerWidth="10"
       markerHeight="10">
      <path
         d="M0 0 l10 5 l-10 5"
         fill="black"
         id="path80" />
    </marker>
  </defs>
  <rect
     x="16"
     y="16"
     width="256"
     height="268.28635"
     id="rect82"
     style="fill:none;stroke:#000000;stroke-width:1.02371562;stroke-opacity:1" />
  <text
     x="96"
     y="52"
     font-size="36"
     font-weight="bold"
     font-family="DejaVu Sans"
     id="text84">Alice</text>
  <use
     xlink:href="#randomNumberBox"
     x="94"
     y="72"
     id="use86" />
  <path
     d="M144 120 l0 20"
     stroke="black"
     stroke-width="1"
     marker-end="url(#triangle)"
     id="path88" />
  <use
     xlink:href="#keyGeneratorBox"
     x="94"
     y="140"
     id="use90" />
  <path
     d="M128 188 l-48 48"
     stroke="black"
     stroke-width="1"
     marker-end="url(#triangle)"
     id="path92" />
  <path
     d="M160 188 l48 48"
     stroke="black"
     stroke-width="1"
     marker-end="url(#triangle)"
     id="path94" />
  <path
     inkscape:connector-curvature="0"
     d="m 164.83293,222.62126 c -8.30259,0 -15.04102,9.27303 -15.04102,20.69372 0,11.4207 6.73843,20.68521 15.04102,20.68521 6.9093,0 12.72629,-6.42372 14.48708,-15.16006 l 45.77106,0 0,7.98098 7.74582,0 0,6.06454 6.42207,0 0,-6.06454 7.21064,0 0,-7.98098 9.13542,0 0,-9.99301 -76.08784,0 c -1.48716,-9.27338 -7.49774,-16.22586 -14.68425,-16.22586 z m -3.76494,13.06254 c 2.71746,0 4.92917,3.18303 4.92917,7.10254 0,3.91952 -2.21171,7.10255 -4.92917,7.10255 -2.71747,0 -4.91979,-3.18303 -4.91979,-7.10255 0,-3.91952 2.20232,-7.10254 4.91979,-7.10254 z"
     style="fill:#ff0000;fill-opacity:1;fill-rule:evenodd;stroke:#000000;stroke-width:1.47109485;stroke-linecap:square;stroke-linejoin:miter;stroke-miterlimit:4;stroke-opacity:1;stroke-dasharray:none;stroke-dashoffset:10"
     id="path1519" />
  <path
     inkscape:connector-curvature="0"
     d="m 42.464865,221.26009 c -8.3026,0 -15.04103,9.27303 -15.04103,20.69372 0,11.4207 6.73843,20.68521 15.04103,20.68521 6.909289,0 12.726276,-6.42372 14.487073,-15.16006 l 45.771052,0 0,13.86536 7.74583,0 0,-5.70422 6.42206,0 0,5.70422 7.21065,0 0,-13.86536 9.13542,0 0,-9.99301 -76.087841,0 C 55.661943,228.21257 49.65136,221.26009 42.464865,221.26009 z m -3.76495,13.06254 c 2.717464,0 4.929174,3.18303 4.929174,7.10254 0,3.91952 -2.21171,7.10255 -4.929174,7.10255 -2.717465,0 -4.919789,-3.18303 -4.919789,-7.10255 0,-3.91952 2.202324,-7.10254 4.919789,-7.10254 z"
     style="fill:#00ff00;fill-opacity:1;fill-rule:evenodd;stroke:#000000;stroke-width:1.47109485;stroke-linecap:square;stroke-linejoin:miter;stroke-miterlimit:4;stroke-opacity:1;stroke-dasharray:none;stroke-dashoffset:10"
     id="path1567" />
  <text
     xml:space="preserve"
     style="font-size:14px;font-style:normal;font-variant:normal;font-weight:bold;font-stretch:normal;text-align:start;line-height:125%;letter-spacing:0px;word-spacing:0px;writing-mode:lr-tb;text-anchor:start;fill:#000000;fill-opacity:1;stroke:none;font-family:DejaVu Sans;-inkscape-font-specification:DejaVu Sans Bold"
     x="175.0685"
     y="269.26028"
     id="text5480"
     sodipodi:linespacing="125%"><tspan
       sodipodi:role="line"
       id="tspan5482"
       x="175.0685"
       y="269.26028">Private</tspan></text>
  <text
     xml:space="preserve"
     style="font-size:14px;font-style:normal;font-variant:normal;font-weight:bold;font-stretch:normal;text-align:start;line-height:125%;letter-spacing:0px;word-spacing:0px;writing-mode:lr-tb;text-anchor:start;fill:#000000;fill-opacity:1;stroke:none;font-family:DejaVu Sans;-inkscape-font-specification:DejaVu Sans Bold"
     x="53.260277"
     y="269.26028"
     id="text5484"
     sodipodi:linespacing="125%"><tspan
       sodipodi:role="line"
       id="tspan5486"
       x="53.260277"
       y="269.26028">Public</tspan></text>
</svg>
